<svg xmlns="http://www.w3.org/2000/svg" xmlns:xlink="http://www.w3.org/1999/xlink" width="85" height="65" viewBox="0 0 85 65">
  <defs>
    <clipPath id="clip-_02-dsk-e01-v_">
      <rect width="85" height="65"/>
    </clipPath>
  </defs>
  <g id="_02-dsk-e01-v_" data-name="02-dsk-e01-v#" clip-path="url(#clip-_02-dsk-e01-v_)">
    <g id="Group_9530" data-name="Group 9530" transform="translate(-919.645 -507.195)">
      <path id="Oval_39" data-name="Oval 39" d="M945.123,519.031a13.894,13.894,0,1,1-13.9,13.894A13.893,13.893,0,0,1,945.123,519.031Z" fill="#0a66c2"/>
      <path id="Shape_686" data-name="Shape 686" d="M964.789,529.7h33.479a3.743,3.743,0,0,1,3.743,3.743v31.211a3.743,3.743,0,0,1-3.743,3.743H940.4a3.743,3.743,0,0,1-3.743-3.741V550.094" fill="none" stroke="#0a66c2" stroke-linecap="round" stroke-linejoin="round" stroke-width="3"/>
      <path id="Shape_687" data-name="Shape 687" d="M968.372,542.883a1.029,1.029,0,0,0-1.259.074,1.88,1.88,0,0,0-.611,1.455v11.553a1.874,1.874,0,0,0,.611,1.452,1.027,1.027,0,0,0,1.259.078l8.739-5.779a1.992,1.992,0,0,0,.249-2.806,2.024,2.024,0,0,0-.249-.249Z" fill="#0a66c2"/>
      <path id="Shape_685" data-name="Shape 685" d="M944.331,526.674l-1.729,4.562h-3.348a.823.823,0,0,0-.579,1.438l2.912,2.036-1.612,3.713a.879.879,0,0,0,1.25,1.1l3.9-2.2,3.9,2.2a.881.881,0,0,0,1.253-1.1l-1.615-3.713,2.915-2.036a.823.823,0,0,0-.576-1.437h-3.364l-1.727-4.562a.9.9,0,0,0-1.577,0Z" fill="#fff"/>
      <path id="Path_29568" data-name="Path 29568" d="M932.737,512.02l2.857,4.4" fill="none" stroke="#0a66c2" stroke-linecap="round" stroke-miterlimit="4.002" stroke-width="3.001"/>
      <path id="Path_29569" data-name="Path 29569" d="M950.692,510.2l-.93,4.374" fill="none" stroke="#0a66c2" stroke-linecap="round" stroke-miterlimit="3.999" stroke-width="3"/>
      <path id="Path_29570" data-name="Path 29570" d="M922.645,523.823l4.374.931" fill="none" stroke="#0a66c2" stroke-linecap="round" stroke-miterlimit="3.999" stroke-width="3"/>
    </g>
  </g>
</svg>
