<svg xmlns="http://www.w3.org/2000/svg" xmlns:xlink="http://www.w3.org/1999/xlink" width="85" height="65" viewBox="0 0 85 65">
  <defs>
    <clipPath id="clip-path">
      <path id="Oval_52" data-name="Oval 52" d="M611.832,1108.9a17.077,17.077,0,1,0-17.077-17.077A17.078,17.078,0,0,0,611.832,1108.9Z" transform="translate(-594.755 -1074.75)" fill="#0a66c2"/>
    </clipPath>
    <clipPath id="clip-_02-dsk-e02-v_">
      <rect width="85" height="65"/>
    </clipPath>
  </defs>
  <g id="_02-dsk-e02-v_" data-name="02-dsk-e02-v#" clip-path="url(#clip-_02-dsk-e02-v_)">
    <g id="Group_9524" data-name="Group 9524" transform="translate(16634 20344)">
      <g id="Group_9518" data-name="Group 9518" transform="translate(-17552.5 -21015.588)">
        <path id="Oval_52-2" data-name="Oval 52" d="M616.417,1118.074a21.662,21.662,0,1,0-21.662-21.662A21.663,21.663,0,0,0,616.417,1118.074Z" transform="translate(344.745 -392.162)" fill="none" stroke="#0a66c2" stroke-linecap="round" stroke-linejoin="round" stroke-width="3"/>
        <path id="Oval_51" data-name="Oval 51" d="M606.616,1092.472a6.986,6.986,0,1,0-6.986-6.985A6.985,6.985,0,0,0,606.616,1092.472Z" transform="translate(354.703 -385.977)" fill="#0a66c2"/>
        <g id="Mask_Group_861" data-name="Mask Group 861" transform="translate(944.085 687.172)" clip-path="url(#clip-path)">
          <path id="Oval_52-3" data-name="Oval 52" d="M605.55,1096.341a10.8,10.8,0,1,0-10.8-10.8A10.8,10.8,0,0,0,605.55,1096.341Z" transform="translate(-588.474 -1052.52)" fill="#0a66c2"/>
        </g>
      </g>
      <g id="Group_9520" data-name="Group 9520" transform="translate(-17552 -21014)">
        <rect id="Rectangle_11290" data-name="Rectangle 11290" width="15" height="11" rx="2" transform="translate(921 720)" fill="#0a66c2"/>
        <path id="Shape_687" data-name="Shape 687" d="M846.332,1105.174a.36.36,0,0,0-.441.026.658.658,0,0,0-.214.51v4.051a.658.658,0,0,0,.214.509.36.36,0,0,0,.441.027l3.064-2.026a.7.7,0,0,0,0-1.071Z" transform="translate(80.949 -382.299)" fill="#f6fbff"/>
      </g>
      <g id="Group_9519" data-name="Group 9519" transform="translate(-17552 -21014)">
        <rect id="Rectangle_11290-2" data-name="Rectangle 11290" width="15" height="11" rx="2" transform="translate(985 720)" fill="#0a66c2"/>
        <path id="Shape_302" data-name="Shape 302" d="M524.08,802l6.437,2.7a2.653,2.653,0,0,0,1.968,0l6.45-2.7" transform="translate(461.064 -78.455)" fill="none" stroke="#fff" stroke-linecap="round" stroke-width="1"/>
      </g>
      <g id="Group_9521" data-name="Group 9521" transform="translate(-17552 -21015)">
        <g id="Group_9465" data-name="Group 9465">
          <g id="Group_9461" data-name="Group 9461" transform="translate(-7 -23)">
            <rect id="Rectangle_11290-3" data-name="Rectangle 11290" width="15" height="11" rx="2" transform="translate(992 699)" fill="#0a66c2"/>
            <path id="Shape_260" data-name="Shape 260" d="M486.11,662.631v5.338l5.769-5.338Z" transform="translate(513.505 45.045)" fill="#0a66c2"/>
          </g>
          <line id="Line_144" data-name="Line 144" x2="8" transform="translate(988.5 679.5)" fill="none" stroke="#fff" stroke-linecap="round" stroke-width="1"/>
        </g>
        <line id="Line_145" data-name="Line 145" x2="5" transform="translate(988.5 682.5)" fill="none" stroke="#fff" stroke-linecap="round" stroke-width="1"/>
      </g>
      <g id="Group_9522" data-name="Group 9522" transform="translate(-17641 -21039)">
        <path id="Oval_154" data-name="Oval 154" d="M579.625,1016.75a1.875,1.875,0,1,0-1.875-1.875A1.876,1.876,0,0,0,579.625,1016.75Z" transform="translate(440.371 -307.437)" fill="#fff"/>
        <path id="Oval_31" data-name="Oval 31" d="M561.752,700.2a7.206,7.206,0,1,0-7.5-7.2A7.355,7.355,0,0,0,561.752,700.2Z" transform="translate(455.748 13.199)" fill="#0a66c2"/>
        <path id="Shape_207" data-name="Shape 207" d="M563.377,689.885l-3.141,4.022a.834.834,0,0,1-1.223.083l-1.622-1.557" transform="translate(457.466 14.22)" fill="none" stroke="#fff" stroke-linecap="round" stroke-linejoin="round" stroke-width="1.5"/>
      </g>
    </g>
  </g>
</svg>
