<svg xmlns="http://www.w3.org/2000/svg" xmlns:xlink="http://www.w3.org/1999/xlink" width="105" height="65" viewBox="0 0 105 65">
  <defs>
    <clipPath id="clip-_02-dsk-e03-v_">
      <rect width="105" height="65"/>
    </clipPath>
  </defs>
  <g id="_02-dsk-e03-v_" data-name="02-dsk-e03-v#" clip-path="url(#clip-_02-dsk-e03-v_)">
    <g id="Group_9526" data-name="Group 9526" transform="translate(16457 20338.098)">
      <g id="Group_9523" data-name="Group 9523" transform="translate(-16455 -20334.098)">
        <g id="Group_94" data-name="Group 94" transform="translate(0 32.519)">
          <g id="face-id-smartphone">
            <path id="Rectangle-path_27" data-name="Rectangle-path 27" d="M860.845,1290.5a3.109,3.109,0,0,1,3.11-3.11h7.773a3.111,3.111,0,0,1,3.11,3.11v17.1a3.109,3.109,0,0,1-3.11,3.109h-7.773a3.108,3.108,0,0,1-3.11-3.109Z" transform="translate(-860.845 -1287.388)" fill="none" stroke="#0a66c2" stroke-linecap="round" stroke-linejoin="round" stroke-width="2.5"/>
          </g>
        </g>
        <path id="Shape_506" data-name="Shape 506" d="M854.361,1291.651a13.256,13.256,0,0,0,3.759,8.063H843.085a13.271,13.271,0,0,0,3.759-8.063" transform="translate(-799.414 -1245.689)" fill="#0a66c2" stroke="#0a66c2" stroke-linecap="round" stroke-linejoin="round" stroke-width="2.5"/>
        <path id="Shape_507" data-name="Shape 507" d="M840.835,1295.971h26.311" transform="translate(-802.803 -1241.945)" fill="none" stroke="#0a66c2" stroke-linecap="round" stroke-linejoin="round" stroke-width="2.5"/>
        <path id="Rectangle-path_29" data-name="Rectangle-path 29" d="M834.835,1278.13a3.758,3.758,0,0,1,3.759-3.759h48.863a3.76,3.76,0,0,1,3.759,3.759v35.781a3.758,3.758,0,0,1-3.759,3.759H838.594a3.757,3.757,0,0,1-3.759-3.759Z" transform="translate(-811.836 -1274.371)" fill="none" stroke="#0a66c2" stroke-linecap="round" stroke-linejoin="round" stroke-width="3"/>
        <path id="Path_29572" data-name="Path 29572" d="M0,0H57l.135,2.25H0Z" transform="translate(23 37.422)" fill="#0a66c2"/>
        <g id="Rectangle_11394" data-name="Rectangle 11394" transform="translate(73 15)" fill="#eef3f8" stroke="#0a66c2" stroke-width="2.5">
          <rect width="29" height="41" rx="3" stroke="none"/>
          <rect x="1.25" y="1.25" width="26.5" height="38.5" rx="1.75" fill="none"/>
        </g>
        <path id="Polygon_1" data-name="Polygon 1" d="M5.073.7a.5.5,0,0,1,.853,0l4.608,7.541A.5.5,0,0,1,10.108,9H.892a.5.5,0,0,1-.427-.761Z" transform="translate(56.5 15.242) rotate(90)" fill="#0a66c2"/>
        <path id="Polygon_2" data-name="Polygon 2" d="M3.09.585a.5.5,0,0,1,.819,0l2.54,3.628A.5.5,0,0,1,6.04,5H.96a.5.5,0,0,1-.41-.787Z" transform="translate(90 31.313) rotate(90)" fill="#0a66c2"/>
        <path id="Polygon_3" data-name="Polygon 3" d="M2.76.32a.3.3,0,0,1,.48,0l2.4,3.2A.3.3,0,0,1,5.4,4H.6a.3.3,0,0,1-.24-.48Z" transform="translate(9.5 40.644) rotate(90)" fill="#0a66c2"/>
      </g>
    </g>
  </g>
</svg>
